<?xml version="1.0" encoding="utf-8"?>
<svg viewBox="0 0 514.04 521.062" xmlns="http://www.w3.org/2000/svg">
  <path d="M 321.208 2.925 C 303.508 2.925 289.208 17.225 289.208 34.925 C 289.208 52.625 303.508 66.925 321.208 66.925 L 403.908 66.925 L 202.608 268.325 C 190.108 280.825 190.108 301.125 202.608 313.625 C 215.108 326.125 235.408 326.125 247.908 313.625 L 449.208 112.225 L 449.208 194.925 C 449.208 212.625 463.508 226.925 481.208 226.925 C 498.908 226.925 513.208 212.625 513.208 194.925 L 513.208 34.925 C 513.208 17.225 498.908 2.925 481.208 2.925 L 321.208 2.925 Z M 81.208 34.925 C 37.008 34.925 1.208 70.725 1.208 114.925 L 1.208 434.925 C 1.208 479.125 37.008 514.925 81.208 514.925 L 401.208 514.925 C 445.408 514.925 481.208 479.125 481.208 434.925 L 481.208 322.925 C 481.208 305.225 466.908 290.925 449.208 290.925 C 431.508 290.925 417.208 305.225 417.208 322.925 L 417.208 434.925 C 417.208 443.725 410.008 450.925 401.208 450.925 L 81.208 450.925 C 72.408 450.925 65.208 443.725 65.208 434.925 L 65.208 114.925 C 65.208 106.125 72.408 98.925 81.208 98.925 L 193.208 98.925 C 210.908 98.925 225.208 84.625 225.208 66.925 C 225.208 49.225 210.908 34.925 193.208 34.925 L 81.208 34.925 Z" style="fill: rgb(255, 255, 255);" transform="matrix(1, 0, 0, 1, 0, -1.4210854715202004e-14)"/>
</svg>